<?xml version="1.0" standalone="no"?>
<!DOCTYPE svg PUBLIC "-//W3C//DTD SVG 20010904//EN"
 "http://www.w3.org/TR/2001/REC-SVG-20010904/DTD/svg10.dtd">
<svg version="1.0" xmlns="http://www.w3.org/2000/svg"
 width="32.000000pt" height="32.000000pt" viewBox="0 0 32.000000 32.000000"
 preserveAspectRatio="xMidYMid meet">

<g transform="translate(0.000000,32.000000) scale(0.100000,-0.100000)"
fill="#000000" stroke="none">
<path d="M60 259 c0 -15 -5 -19 -15 -15 -32 12 -46 -22 -43 -103 l3 -76 70 -7
c39 -3 107 -4 153 -1 l82 6 0 88 c0 88 0 89 -25 89 -18 0 -25 5 -25 20 0 19
-7 20 -100 20 -95 0 -100 -1 -100 -21z m190 -5 c0 -13 -5 -15 -22 -9 -29 11
-107 11 -135 0 -18 -6 -23 -4 -23 9 0 14 14 16 90 16 76 0 90 -2 90 -16z m-57
-26 c71 -38 60 -134 -19 -154 -32 -8 -75 21 -89 60 -11 33 8 75 45 93 31 16
36 16 63 1z m-128 -20 c-17 -56 -16 -69 4 -103 l20 -35 -34 0 -35 0 0 80 c0
80 0 80 26 80 23 0 25 -3 19 -22z m235 -58 l0 -80 -30 0 c-35 0 -36 2 -14 35
16 25 16 70 -1 108 -6 14 -2 17 19 17 26 0 26 0 26 -80z"/>
<path d="M155 160 c-3 -5 -1 -10 4 -10 6 0 11 5 11 10 0 6 -2 10 -4 10 -3 0
-8 -4 -11 -10z"/>
</g>
</svg>
